<svg width="99" height="24" viewBox="0 0 99 24" fill="none" xmlns="http://www.w3.org/2000/svg">
<g id="Group 13" opacity="0.2">
<path id="Fill 1" fill-rule="evenodd" clip-rule="evenodd" d="M78.6288 14.3761C79.1684 13.8892 79.6369 13.3537 80.2901 12.9642C80.8296 12.6477 81.3834 12.3799 82.0649 12.3799C83.0162 12.3799 83.57 12.6964 83.9391 13.4511C84.1521 13.8771 84.1947 14.3274 84.2941 14.8143C84.5497 14.5222 84.7769 14.2422 85.0041 13.9866C85.3874 13.5484 85.8276 13.1589 86.3671 12.8546C88.213 11.7714 90.4422 12.5747 90.854 14.4613C91.1095 15.6298 90.6978 16.7131 90.286 17.7964C90.1724 18.0885 90.002 18.3805 89.9452 18.6971C89.9168 18.904 89.8458 19.1108 90.0588 19.257C90.2576 19.4031 90.499 19.2692 90.6836 19.1962C91.8905 18.7336 92.927 18.0642 93.7221 17.1633C93.9351 16.9199 94.1481 16.6765 94.3469 16.421C94.4462 16.2993 94.5456 16.1896 94.7444 16.2505C94.929 16.2993 95 16.433 95 16.5792C95 16.7131 94.9858 16.8591 94.9432 16.9931C94.0061 19.3422 92.3022 21.0828 89.4767 21.8253C87.5598 22.3364 85.8844 20.9366 86.211 19.2448C86.3671 18.4414 86.7505 17.7355 87.1907 17.0296C87.5882 16.3966 88.0426 15.7881 88.2414 15.0821C88.3408 14.729 88.284 14.4126 87.9716 14.1814C87.645 13.9379 87.2901 14.0718 86.9777 14.2179C86.0832 14.6439 85.4442 15.3255 84.8337 16.007C83.5274 17.4921 83.0162 19.2205 82.7748 21.0341C82.7607 21.18 82.7181 21.3384 82.7039 21.4843C82.6897 21.8009 82.4625 21.8861 82.1359 21.8861H81.0284C79.9493 21.8861 79.4381 21.5088 79.2252 20.5837C79.0832 19.9386 79.2819 19.3543 79.5375 18.7823C79.9777 17.7842 80.6166 16.8835 81.213 15.9585C81.4544 15.5933 81.6247 15.2038 81.7525 14.8021C81.8235 14.583 81.9229 14.3153 81.6673 14.1327C81.3976 13.9501 81.0852 13.9258 80.7444 14.0353C80.4179 14.1449 80.1481 14.3031 79.8925 14.4978C78.0609 15.8733 76.8256 17.5285 76.4564 19.6343C76.357 20.2429 76.3144 20.8637 76.215 21.4843C76.1724 21.7886 75.9878 21.8983 75.6613 21.8983C75.0791 21.8983 74.5112 21.874 73.929 21.9104C73.4462 21.9348 73.1197 21.7522 72.9351 21.4114C72.7789 21.1192 72.6511 21.18 72.4097 21.3262C71.8134 21.6914 71.1886 21.9835 70.4219 21.9835C69.0588 21.9835 68.0649 21.3018 67.7667 20.1577C67.6815 19.8169 67.6815 19.476 67.6815 19.0623C67.3834 19.3909 67.1278 19.6586 66.858 19.9386C66.2759 20.5472 65.6085 21.0828 64.7992 21.4843C63.2231 22.2635 61.8174 22.02 60.7099 20.7785C60.284 21.0828 59.858 21.3871 59.3611 21.6184C57.5436 22.4947 55.6694 21.8131 55.1724 20.0725C54.8742 19.05 55.1014 18.0642 55.5558 17.1148C55.9391 16.2993 56.5213 15.5933 57.2596 14.9116C56.9473 14.8873 56.7485 15.0091 56.5497 15.0941C55.8398 15.3499 55.1298 15.7394 54.3631 15.7515C53.6531 15.7636 53.5538 16.0923 53.355 16.5305C52.858 17.6625 52.3043 18.7823 51.3387 19.6952C50.3164 20.6446 49.1805 21.4723 47.6613 21.7644C45.3043 22.2269 44.211 20.7663 44.3813 19.2326C44.4807 18.3441 44.9777 17.553 45.432 16.7618C45.7728 16.1896 46.213 15.6663 46.4118 15.0333C46.5112 14.7169 46.4686 14.4247 46.1704 14.2057C45.8722 13.9866 45.5314 14.0718 45.2191 14.2179C44.2819 14.6681 43.6146 15.362 42.9615 16.0679C41.8682 17.2608 41.3712 18.6606 41.144 20.1454C41.073 20.5837 41.0304 21.0219 40.9736 21.4601C40.9452 21.7278 40.7606 21.8374 40.4767 21.8374H38.4746C38.0629 21.8374 37.8215 21.594 37.6795 21.3141C37.5375 21.0463 37.4239 21.1192 37.211 21.2409C36.572 21.6305 35.8905 21.9348 35.0527 21.9226C33.789 21.8861 32.8093 21.1923 32.5396 20.0969C32.4544 19.7561 32.4544 19.4151 32.4544 18.9771C32.2556 19.1962 32.1136 19.3543 31.9716 19.5126C31.2617 20.3038 30.4665 21.0098 29.43 21.4843C27.3002 22.4704 25.0142 21.2897 25 19.2083C25 17.9059 25.7099 16.847 26.6187 15.8853C28.2657 14.1449 30.3387 12.9398 32.9087 12.453C34.641 12.1243 36.3164 12.2704 37.7221 13.3293C37.8499 13.4267 37.9635 13.5119 38.0629 13.6215C38.7728 14.3761 38.6876 14.6804 38.0345 15.2525C37.6369 15.6055 37.2252 15.9585 36.7282 16.2141C36.3448 16.4088 36.288 16.3845 36.2738 16.007C36.2596 15.6055 36.3022 15.2038 36.1886 14.8021C35.8763 13.6336 35.1379 13.232 33.8032 13.585C32.568 13.9136 31.6592 14.6317 30.8783 15.4716C30.1684 16.2384 29.5862 17.0661 29.3022 18.0277C29.2028 18.3441 29.1744 18.6728 29.5152 18.8919C29.8418 19.1108 30.211 19.05 30.5517 18.8919C31.3895 18.5022 31.9574 17.8573 32.568 17.2608C33.1217 16.7131 33.4057 16.0558 33.8316 15.4472C34.3002 14.7656 34.783 14.6439 35.6349 14.9604C35.8621 15.0456 35.9189 15.1186 35.8195 15.3255C35.4787 16.0558 35.3225 16.8227 35.3651 17.626C35.4077 18.3563 35.8195 18.8554 36.501 18.9771C37.1116 19.0988 37.6795 18.8432 37.9209 18.3563C39.4828 15.2038 41.1298 12.0878 43.0183 9.06921C43.8844 7.66945 45.3469 7.06086 47.1501 7H47.3205C47.7039 7.06086 48.1156 7.10955 48.2718 7.46253C48.428 7.81551 48.1724 8.08329 47.9026 8.3389C46.071 10.0551 44.5375 11.9418 43.3874 14.0597C43.3448 14.1327 43.3306 14.2057 43.288 14.2666C43.2596 14.3274 43.1318 14.3761 43.2028 14.4247C43.3022 14.4978 43.3306 14.3761 43.3732 14.3274C43.856 13.7797 44.3529 13.2563 44.9777 12.8181C46.6672 11.6253 48.7546 12.2947 49.1805 14.2179C49.4503 15.4593 49.01 16.5792 48.499 17.7111C48.3428 18.052 48.1298 18.3685 48.1014 18.7457C48.073 19.2083 48.215 19.3422 48.6978 19.1596C50.6288 18.405 52.1481 17.2974 52.8722 15.5202C52.9432 15.3376 52.8438 15.2525 52.7586 15.1186C51.8499 13.8771 51.9777 12.453 53.2556 11.6253C53.7951 11.2723 54.4057 11.1141 55.073 11.3453C55.4564 11.4792 55.6126 11.7105 55.499 12.0756C55.3712 12.5017 55.0588 12.8425 54.789 13.1955C54.4483 13.658 54.0223 14.084 53.8803 14.6681C54.1785 14.6926 54.4057 14.5709 54.6329 14.4613C55.4706 14.0597 56.2941 13.6458 57.1318 13.2563C57.785 12.952 58.4665 12.6477 59.2333 12.6356C60.2982 12.6112 60.9371 13.3172 60.6815 14.2057C60.4686 14.9116 60.0284 15.5202 59.5456 16.1167C59.1339 16.6156 58.7079 17.0904 58.3529 17.626C58.1258 17.979 57.9554 18.3441 58.2961 18.7093C58.6511 19.0988 59.1623 19.1231 59.6592 19.0623C59.8722 19.0379 60.1562 19.05 60.2272 18.7457C60.5396 17.3095 61.4767 16.1654 62.641 15.1673C64.1744 13.8527 65.9777 12.9155 68.1075 12.5382C69.8256 12.2339 71.4868 12.3556 72.8925 13.4024C73.0203 13.4998 73.1623 13.6093 73.2759 13.7188C73.9148 14.3518 73.9148 14.7048 73.2475 15.3255C72.8641 15.6785 72.4523 16.007 71.9838 16.2749C71.856 16.348 71.714 16.4818 71.5578 16.3966C71.4016 16.3236 71.4868 16.1654 71.4726 16.0437C71.4442 15.6542 71.4868 15.2647 71.3874 14.8752C71.0892 13.7188 70.3225 13.3172 68.9878 13.6823C67.7383 14.0231 66.8296 14.7534 66.0487 15.6055C65.3671 16.348 64.7992 17.1633 64.5152 18.0885C64.4158 18.4293 64.3732 18.7701 64.7282 18.9891C65.069 19.2083 65.4665 19.1231 65.8073 18.9527C66.7586 18.4659 67.3976 17.7234 68.0791 17.0052C68.4909 16.567 68.6755 16.0315 69.0162 15.5568C69.499 14.8752 69.9532 14.7413 70.8195 15.0456C71.0609 15.1308 71.1176 15.2159 71.0183 15.4351C70.6775 16.1654 70.5213 16.9322 70.5781 17.7355C70.6207 18.478 71.0609 18.9771 71.785 19.0866C72.3387 19.184 72.9067 18.9162 73.1197 18.4659C74.0568 16.5548 75.3631 14.8265 76.9817 13.2807C77.1521 13.1103 77.3509 12.952 77.5497 12.806C78.0041 12.4773 78.7282 12.4286 79.2393 12.6721C79.4523 12.7694 79.3813 12.8668 79.2819 13.0007C78.9696 13.4267 78.7282 13.8892 78.501 14.3518C78.501 14.3883 78.4868 14.4247 78.501 14.437C78.5862 14.437 78.6146 14.4126 78.6288 14.3761Z" fill="#020202"/>
<path id="Fill 3" fill-rule="evenodd" clip-rule="evenodd" d="M17.1758 12.4085C17.5208 12.2923 17.8226 12.1877 18.1244 12.0947C17.7507 12.0598 17.2765 11.839 17.1758 12.4085ZM13.6404 12.1063C13.0368 12.1993 12.462 12.3039 11.9733 12.5945C11.7578 12.7224 11.6572 12.8851 11.9733 13.013C12.3901 13.1873 12.8644 13.1757 13.2812 13.106C13.5973 13.0595 13.4249 12.7108 13.5398 12.5132C13.6117 12.3969 13.5973 12.2574 13.6404 12.1063ZM17.8513 11.0486C18.3112 11.1416 18.7567 11.1881 19.1448 11.3392C19.5903 11.5019 19.9208 11.4205 20.3089 11.2578C22.249 10.4093 24.0886 9.44452 25.5688 8.10781C26.3449 7.41039 26.9916 6.65486 27.1497 5.67848C27.3078 4.59749 26.8479 3.76059 25.6982 3.19103C24.764 2.72609 23.7005 2.54011 22.637 2.48199C20.1939 2.34251 17.7938 2.45875 15.48 3.23753C12.5051 4.23715 10.105 5.85283 8.07865 7.85209C6.25346 9.6305 4.84505 11.6181 3.69532 13.7336C3.56598 13.9545 3.47975 14.0475 3.1492 13.9661C1.65456 13.5593 0.691666 12.7224 0.289263 11.5251C-0.386201 9.47939 0.159918 7.5615 1.52522 5.79472C3.17795 3.6676 5.60674 2.31926 8.39482 1.33126C11.6859 0.157275 15.1207 -0.168185 18.6705 0.0759101C20.8981 0.227017 23.0682 0.540854 25.1233 1.24989C26.2587 1.64509 27.2791 2.16816 28.1557 2.88882C29.5929 4.07442 30.0528 5.539 29.9953 7.13143C29.9091 9.31666 28.4719 10.8858 26.3593 12.1063C25.4539 12.6294 24.491 13.0478 23.4562 13.3733C23.1113 13.4895 23.1257 13.5593 23.3269 13.7801C25.0802 15.7794 25.0658 18.9991 23.1113 20.8589C21.4155 22.4629 19.3316 23.6834 16.6297 23.9508C14.6896 24.1484 12.8931 23.7532 11.3554 22.7303C10.3494 22.0677 10.0619 21.1611 10.1482 20.1615C10.1625 19.9406 10.2631 19.65 10.6655 19.7546C11.8584 20.0685 13.0081 19.8476 14.1003 19.4873C16.6585 18.662 18.8286 17.3951 20.4382 15.5469C20.8262 15.1052 21.128 14.6286 21.1137 14.0358C19.504 14.4078 17.8801 14.5821 16.2417 14.6751C16.0549 14.6868 15.983 14.7449 15.9399 14.8727C15.6381 15.5469 15.2932 16.2211 15.0345 16.9069C14.9339 17.1626 14.7902 17.151 14.589 17.0696C13.9135 16.779 13.3818 16.3606 13.0512 15.8026C12.8644 15.5004 13.0081 15.1517 13.0656 14.8379C13.1087 14.6054 13.0225 14.5705 12.7925 14.5473C12.1889 14.4892 11.5997 14.3264 11.0536 14.1056C10.7661 13.9893 10.5074 13.8499 10.3062 13.6523C9.61641 12.9781 9.41521 12.0947 10.6655 11.4787C11.4847 11.0718 12.3901 10.8975 13.3386 10.8394C14.086 10.7929 14.086 10.8045 14.2728 10.2349C14.8045 8.65412 15.5519 7.14305 16.2848 5.62036C16.4285 5.32977 16.7016 5.24841 17.0034 5.19029C18.2537 4.96944 19.5184 4.8997 20.7975 4.99269C21.1424 5.01593 21.4873 5.01593 21.8179 5.12055C22.0047 5.17867 22.1915 5.24841 21.9616 5.44601C20.5532 6.61999 19.6909 8.06131 18.7855 9.49102C18.4549 9.96758 18.1819 10.5023 17.8513 11.0486Z" fill="#010101"/>
<path id="Fill 5" fill-rule="evenodd" clip-rule="evenodd" d="M95.6882 21.9882C94.6237 21.9311 93.7667 21.5658 93.1168 20.8578C92.951 20.675 92.951 20.5608 93.1859 20.4011C94.444 19.5332 95.3149 18.46 95.7987 17.1581C95.8679 16.964 96.0061 16.9984 96.158 17.0097C97.6373 17.1126 98.8815 18.1287 98.9919 19.3163C99.1026 20.5153 98.0658 21.6342 96.5867 21.9196C96.2963 21.9767 95.9923 22.0225 95.6882 21.9882Z" fill="#020202"/>
<path id="Fill 7" fill-rule="evenodd" clip-rule="evenodd" d="M93 16C92.4648 16.7571 91.8732 17.4571 91 18C91.3803 16.9286 92.0563 16.3286 93 16Z" fill="#020202"/>
<path id="Fill 9" fill-rule="evenodd" clip-rule="evenodd" d="M43.0963 14.9718C43.0534 15.0181 43.0248 15.134 42.9247 15.0645C42.8531 15.0181 42.9819 14.9602 43.0105 14.9138C43.0391 14.937 43.0677 14.9602 43.0963 14.9718Z" fill="#FEFEFE"/>
<path id="Fill 11" fill-rule="evenodd" clip-rule="evenodd" d="M79.0463 15.0012C79.032 15.036 79.0034 15.0592 78.9605 15.036C78.9462 15.0244 78.9605 14.9781 78.9605 14.9549C78.9891 14.9665 79.0177 14.9781 79.0463 15.0012Z" fill="#FEFEFE"/>
</g>
</svg>
