<svg width="31" height="25" viewBox="0 0 31 25" fill="none" xmlns="http://www.w3.org/2000/svg">
<g id="Icon">
<path id="Shape" fill-rule="evenodd" clip-rule="evenodd" d="M1.72782 23.3112C-0.192748 21.3906 0.175714 17.908 2.55086 15.5328C4.92624 13.1575 8.4167 12.7811 10.3294 14.7098C10.9253 15.3105 11.7435 15.3659 12.3195 14.8993L12.8516 14.4681L14.4093 15.1127L15.1891 16.8056L9.50639 22.4884C7.13124 24.8635 3.64863 25.232 1.72782 23.3112ZM8.24817 16.732C7.40874 15.8925 5.76336 16.1769 4.57302 17.3673C3.3829 18.5574 3.09848 20.2028 3.9379 21.0422C4.77733 21.8816 6.42271 21.5972 7.61283 20.4071C8.80317 19.2168 9.0876 17.5714 8.24817 16.732Z" fill="#9AD880"/>
<path id="Shape_2" d="M23.1078 0.937322L14.7119 9.33299C14.0488 9.99604 13.6674 10.892 13.6633 11.8296C13.6598 12.6588 13.4908 13.7178 12.8516 14.4681L15.1891 16.8057L24.0146 7.97988C24.0146 7.97988 27.186 4.80848 25.6769 1.41314C25.2255 0.397326 23.8936 0.151223 23.1078 0.937322Z" fill="#D8D7DA"/>
<path id="Shape_3" d="M17.1145 6.93018L14.7119 9.3328C14.0488 9.99584 13.6674 10.8918 13.6633 11.8294C13.6598 12.6586 13.4908 13.7176 12.8516 14.4679L15.1891 16.8055L20.2303 11.764C19.6372 9.40921 18.2753 7.86564 17.1145 6.93018Z" fill="#C6C5CA"/>
<path id="Shape_4" fill-rule="evenodd" clip-rule="evenodd" d="M18.0586 14.8993C18.6349 15.3659 19.4531 15.3105 20.0487 14.7098C21.9614 12.7811 25.4519 13.1575 27.8273 15.5328C30.2024 17.908 30.5709 21.3906 28.6503 23.3112C26.7295 25.232 23.2469 24.8635 20.8717 22.4884L15.189 16.8056L15.9688 15.1127L17.5265 14.4681L18.0586 14.8993ZM22.7653 20.4071C23.9556 21.5972 25.601 21.8816 26.4402 21.0422C27.2796 20.2028 26.9952 18.5574 25.8051 17.3673C24.6148 16.1769 22.9694 15.8925 22.1302 16.732C21.2907 17.5714 21.5752 19.2168 22.7653 20.4071Z" fill="#B2E59C"/>
<path id="Shape_5" d="M7.27024 0.937322L15.6661 9.33299C16.3292 9.99604 16.7106 10.892 16.7147 11.8296C16.7182 12.6588 16.8872 13.7178 17.5262 14.4681L15.1889 16.8057L6.3634 7.98011C6.3634 7.98011 3.192 4.80848 4.70117 1.41314C5.15274 0.397326 6.48438 0.151223 7.27024 0.937322Z" fill="#EAEAEA"/>
<path id="Shape_6" d="M15.2473 12.013C15.2473 12.671 14.714 13.2045 14.056 13.2045C13.3983 13.2045 12.8647 12.671 12.8647 12.013C12.8647 11.3553 13.3983 10.8218 14.056 10.8218C14.714 10.8218 15.2473 11.3553 15.2473 12.013Z" fill="#9AD880"/>
<path id="Shape_7" fill-rule="evenodd" clip-rule="evenodd" d="M15.6907 12.0129C15.6907 12.9145 14.9574 13.6477 14.0559 13.6477C13.1546 13.6477 12.4214 12.9145 12.4214 12.0129C12.4214 11.1116 13.1546 10.3784 14.0559 10.3784C14.9574 10.3784 15.6907 11.1116 15.6907 12.0129ZM14.8039 12.0129C14.8039 11.6006 14.4685 11.2652 14.0559 11.2652C13.6436 11.2652 13.3081 11.6006 13.3081 12.0129C13.3081 12.4253 13.6436 12.761 14.0559 12.761C14.4685 12.761 14.8039 12.4253 14.8039 12.0129Z" fill="black"/>
<path id="Shape_8" fill-rule="evenodd" clip-rule="evenodd" d="M23.9115 15.8517C24.695 15.9869 25.4788 16.4138 26.1186 17.0538C26.7583 17.6935 27.1852 18.4773 27.3207 19.2608C27.4659 20.101 27.2782 20.8591 26.7539 21.3557C25.0843 22.9369 23.0914 21.3603 22.4517 20.7206C21.812 20.0807 21.3851 19.2969 21.2496 18.5135C21.1044 17.6732 21.3057 16.9293 21.8166 16.4184C22.3273 15.9078 23.0714 15.7064 23.9115 15.8517ZM23.0787 20.0936C23.5903 20.6049 25.1815 21.6872 26.1266 20.7287C26.7761 20.0703 26.4898 18.6791 25.4915 17.6808C24.8553 17.0445 24.0574 16.6957 23.3932 16.6957C23.0153 16.6957 22.6807 16.8084 22.4436 17.0455C21.7896 17.6995 22.0805 19.0953 23.0787 20.0936Z" fill="black"/>
<path id="Shape_9" fill-rule="evenodd" clip-rule="evenodd" d="M28.141 15.2191C26.7509 13.8291 24.9446 13.0326 23.1831 13.0326H23.1711C21.8249 13.0354 20.5953 13.5114 19.734 14.3975C18.9562 15.1977 18.1883 14.4333 18.1883 14.4333L24.3284 8.29338C24.3628 8.25898 25.1799 7.43456 25.809 6.16688C26.6602 4.45201 26.7546 2.74568 26.0821 1.23281C25.8111 0.622635 25.2567 0.185606 24.5997 0.0634776C23.942 -0.0586505 23.2669 0.150745 22.7943 0.623558L16.2611 7.1566C16.0879 7.32975 16.0879 7.61048 16.2611 7.78363C16.4342 7.95701 16.7149 7.95701 16.8881 7.78363L23.4214 1.25059C23.6915 0.980477 24.062 0.865736 24.4379 0.935458C24.813 1.00495 25.1171 1.24459 25.2718 1.59296C25.8385 2.86804 25.7557 4.26662 25.0257 5.75016C24.4628 6.8941 23.7083 7.65896 23.7012 7.66612L17.5904 13.7771C17.2261 13.1076 17.1603 12.2994 17.1582 11.8275C17.1536 10.7717 16.7353 9.77462 15.9799 9.01923L7.5842 0.623558C7.11139 0.150745 6.43657 -0.0584196 5.7786 0.0634776C5.12155 0.185375 4.56748 0.622635 4.29621 1.23281C3.6237 2.74568 3.71812 4.45201 4.56932 6.16688C5.19866 7.43456 6.01547 8.25898 6.0501 8.29338L12.19 14.4333C12.19 14.4333 11.4484 15.1769 10.6441 14.3975C9.75688 13.5373 8.55338 13.0354 7.2072 13.0326H7.19519C5.43392 13.0326 3.62739 13.8291 2.23735 15.2191C-0.307024 17.7635 -0.676179 21.5342 1.41431 23.6245C2.30822 24.5184 3.54497 24.9808 4.88076 24.9808C5.73912 24.9806 6.63857 24.7897 7.51356 24.3995C7.73726 24.2998 7.83769 24.0377 7.73796 23.814C7.63845 23.5903 7.37619 23.4899 7.15248 23.5896C5.25384 24.436 3.24762 24.2037 2.04134 22.9975C1.20907 22.1652 0.828374 20.9723 0.969433 19.6388C1.11419 18.2703 1.78716 16.9234 2.86438 15.8462C4.08935 14.6212 5.66709 13.9194 7.19496 13.9194H7.20535C8.33013 13.9217 9.27599 14.3291 10.0145 15.0217C11.3909 16.3125 12.8205 15.0638 12.8205 15.0638L14.5621 16.8054C14.5621 16.8054 10.0032 21.5352 8.66696 22.6509C8.47881 22.8079 8.44949 23.0854 8.60463 23.2747C8.69236 23.3821 8.94261 23.5213 9.22866 23.3371C9.91063 22.8977 15.1892 17.4324 15.1892 17.4324L20.5584 22.8017C21.7785 24.0218 23.7166 24.9854 25.5195 24.9854C26.8693 24.9854 28.0754 24.5129 28.964 23.6245C31.0545 21.534 30.6853 17.7633 28.141 15.2191ZM5.35265 5.75016C4.62265 4.26662 4.51969 2.8588 5.10655 1.59296C5.57775 0.576231 6.60418 0.900366 6.95694 1.25059L15.3528 9.64626C15.9415 10.2352 16.2678 11.0111 16.2715 11.8312C16.2747 12.5762 16.4005 13.5906 16.9426 14.4247L15.1892 16.1784L6.67736 7.66658L6.67686 7.66607C6.65367 7.64237 5.90964 6.88195 5.35265 5.75016ZM21.1854 22.1747C23.384 24.3732 26.5921 24.7423 28.337 22.9975C30.0816 21.2528 29.7125 18.0447 27.5139 15.8459C26.289 14.6212 24.7112 13.9191 23.1833 13.9191H23.173C22.0482 13.9214 21.0933 14.3194 20.3638 15.0217C18.8849 16.4453 17.5578 15.0638 17.5578 15.0638L15.8162 16.8054L21.1854 22.1747Z" fill="black"/>
<path id="Shape_10" fill-rule="evenodd" clip-rule="evenodd" d="M6.46656 15.8517C7.30668 15.7064 8.05076 15.9078 8.56167 16.4184C9.07234 16.9293 9.27366 17.6732 9.12844 18.5135C8.99293 19.2969 8.56606 20.0807 7.92633 20.7206C7.28637 21.3603 5.11969 22.8437 3.62414 21.3557C3.11208 20.8464 2.91215 20.101 3.05737 19.2608C3.19288 18.4773 3.61975 17.6935 4.25948 17.0538C4.89921 16.414 5.683 15.9869 6.46656 15.8517ZM4.2514 20.7287C5.19911 21.6833 6.7877 20.6049 7.29929 20.0936C8.29756 19.0953 8.58845 17.6995 7.93464 17.0455C7.28059 16.3916 5.88478 16.6825 4.88652 17.6808C3.88825 18.6791 3.5999 20.0726 4.2514 20.7287Z" fill="black"/>
</g>
</svg>
