<svg width="38" height="35" viewBox="0 0 38 35" fill="none" xmlns="http://www.w3.org/2000/svg">
<g id="Icon">
<path id="Shape" d="M11.9783 16.8135L5.40932 23.3822C4.58166 24.2101 4.58166 25.5649 5.40932 26.3928C6.23726 27.2205 7.59201 27.2205 8.41995 26.3928L9.08293 25.7299C9.71116 25.1016 10.7391 25.1016 11.3676 25.7299C11.9958 26.3581 11.9958 27.3863 11.3676 28.0145L8.62644 30.7557C7.79851 31.5833 7.79851 32.9381 8.62644 33.766C9.45438 34.594 10.8091 34.594 11.6368 33.766L20.284 25.1191L11.9783 16.8135Z" fill="#CCF8FF"/>
<path id="Shape_2" d="M9.62891 19.1623C9.81534 20.1224 10.2876 21.3074 11.2885 22.6975C13.1118 25.2299 14.9471 27.1106 16.1103 29.2922L20.2836 25.1189L11.978 16.8135L9.62891 19.1623Z" fill="#ABEBF4"/>
<path id="Shape_3" d="M26.1079 24.9976C24.9091 26.1964 19.2389 30.1974 18.2096 29.168C17.1802 28.139 21.1812 22.4688 22.3803 21.27C23.5792 20.0712 25.0983 20.2209 26.1277 21.2502C27.157 22.2796 27.3067 23.7987 26.1079 24.9976Z" fill="#FF929F"/>
<path id="Shape_4" d="M15.8268 14.7168C14.628 15.9159 8.95786 19.9169 7.92879 18.8876C6.89945 17.8582 10.9004 12.1881 12.0993 10.9892C13.2981 9.7904 14.8173 9.94011 15.8466 10.9695C16.876 11.9988 17.026 13.518 15.8268 14.7168Z" fill="#FF929F"/>
<path id="Shape_5" d="M36.4214 4.16612C36.2099 2.33284 34.7641 0.887126 32.9309 0.675551C29.3635 0.263699 23.2885 0.501262 19.0943 5.68217C15.6608 9.92384 13.5719 13.0048 12.3844 14.9251C11.5485 16.2767 11.753 18.0256 12.8767 19.1492L17.9477 24.2203C19.0717 25.3442 20.8202 25.5488 22.1719 24.7129C24.0925 23.5251 27.1734 21.4362 31.4148 18.0027C36.5957 13.8085 36.8336 7.73351 36.4214 4.16612Z" fill="#EAEAEA"/>
<path id="Shape_6" d="M36.5293 5.4511C36.5056 4.99547 36.4675 4.56497 36.4214 4.16611C36.2099 2.33312 34.7641 0.887406 32.9309 0.675548C29.3635 0.263697 23.2885 0.50126 19.0943 5.68245C15.6608 9.92384 13.5719 13.0048 12.3844 14.9254C11.5485 16.277 11.753 18.0256 12.8767 19.1495L16.2775 22.55C17.9805 18.495 21.2903 14.3551 23.6046 11.75C25.006 10.1733 26.9133 9.14561 28.9951 8.80579C32.7927 8.18604 35.226 6.58327 36.5293 5.4511Z" fill="#D8D7DA"/>
<path id="Shape_7" d="M36.4213 4.16616C36.2098 2.33289 34.764 0.88717 32.9308 0.675595C31.6243 0.524753 29.9806 0.460913 28.2168 0.695369L36.4016 8.88041C36.636 7.11635 36.5722 5.4729 36.4213 4.16616Z" fill="#FF929F"/>
<path id="Shape_8" d="M36.4213 4.16616C36.2098 2.33289 34.764 0.88717 32.9308 0.675595C31.6243 0.524753 29.9806 0.460913 28.2168 0.695369L34.4434 6.92229C35.3242 6.41835 36.0149 5.89774 36.5292 5.45115C36.5055 4.99551 36.4674 4.56502 36.4213 4.16616Z" fill="#FF737D"/>
<path id="Shape_9" d="M20.9675 19.8574C19.7686 21.0565 14.0985 25.0575 13.0694 24.0282C12.0401 22.9988 16.0411 17.3287 17.2399 16.1299C18.4387 14.931 19.9579 15.0807 20.9872 16.1101C22.0166 17.1394 22.1663 18.6586 20.9675 19.8574Z" fill="#FF929F"/>
<path id="Shape_10" d="M31.029 10.7002C31.029 13.2586 28.9551 15.3323 26.397 15.3323C23.8386 15.3323 21.7646 13.2586 21.7646 10.7002C21.7646 8.14182 23.8386 6.06787 26.397 6.06787C28.9551 6.06787 31.029 8.14182 31.029 10.7002Z" fill="#D8D7DA"/>
<path id="Shape_11" d="M23.6048 11.7502C25.0062 10.1731 26.9134 9.14546 28.9953 8.80592C29.5136 8.72118 30.0074 8.61807 30.4755 8.50056C30.267 8.11442 29.9992 7.75087 29.6727 7.42461C27.8637 5.61563 24.9307 5.61563 23.1218 7.42461C21.5814 8.96495 21.3529 11.3202 22.4356 13.1027C22.8432 12.6179 23.237 12.164 23.6048 11.7502Z" fill="#C6C5CA"/>
<path id="Shape_12" d="M24.6557 12.4415C23.6955 11.4814 23.6955 9.91901 24.6557 8.95887C25.6158 7.99873 27.1782 7.99873 28.1383 8.95887C29.0987 9.91901 29.0987 11.4814 28.1383 12.4415C27.1782 13.4017 25.6158 13.4017 24.6557 12.4415Z" fill="#CCF8FF"/>
<path id="Shape_13" d="M25.9274 10.5472C26.6988 9.7758 27.8589 9.62495 28.7829 10.0927C28.6778 9.67721 28.4629 9.28344 28.1383 8.95887C27.1782 7.99873 25.6158 7.99873 24.6557 8.95887C23.6955 9.91901 23.6955 11.4814 24.6557 12.4415C24.8446 12.6305 25.0571 12.7825 25.2836 12.8969C25.0777 12.0831 25.2918 11.1828 25.9274 10.5472Z" fill="#ABEBF4"/>
<path id="Shape_14" d="M4.87747 29.0611C4.87747 30.2384 3.92298 31.1929 2.74562 31.1929C1.56826 31.1929 0.61377 30.2384 0.61377 29.0611C0.61377 27.8837 1.56826 26.9292 2.74562 26.9292C3.92298 26.9292 4.87747 27.8837 4.87747 29.0611Z" fill="#ABEBF4"/>
<path id="Shape_15" fill-rule="evenodd" clip-rule="evenodd" d="M22.7382 7.04092C24.7559 5.02347 28.0389 5.02347 30.0563 7.04092C32.074 9.05865 32.074 12.3413 30.0563 14.359C28.0386 16.3768 24.7559 16.3768 22.7382 14.359C20.7207 12.3416 20.7207 9.05865 22.7382 7.04092ZM23.5054 7.80813C21.9108 9.40271 21.9108 11.9975 23.5054 13.5921C25.1 15.1867 27.6945 15.1867 29.2894 13.5921C30.884 11.9973 30.884 9.40271 29.2894 7.80813C27.6945 6.21354 25.1 6.21354 23.5054 7.80813Z" fill="black"/>
<path id="Shape_16" fill-rule="evenodd" clip-rule="evenodd" d="M24.2723 8.57497C25.4438 7.40325 27.3502 7.40354 28.5219 8.57497C29.6936 9.74668 29.6936 11.6531 28.5219 12.8248C27.3502 13.9965 25.4438 13.9965 24.2723 12.8248C23.1006 11.6531 23.1006 9.74668 24.2723 8.57497ZM25.0393 9.34218C24.2904 10.0907 24.2904 11.3091 25.0393 12.0576C25.7881 12.8065 27.0062 12.8065 27.755 12.0576C28.5036 11.3091 28.5036 10.0907 27.755 9.34218C27.0062 8.59333 25.7881 8.59333 25.0393 9.34218Z" fill="black"/>
<path id="Shape_17" fill-rule="evenodd" clip-rule="evenodd" d="M27.2386 21.9163C28.5583 20.9482 30.0648 19.7934 31.756 18.4243C34.1386 16.4955 35.7482 13.9933 36.54 10.9875C37.2383 8.33675 37.1538 5.7809 36.9603 4.10383C36.7185 2.01011 35.0872 0.378811 32.9932 0.136728C31.3161 -0.0567684 28.7606 -0.141229 26.1095 0.557336C23.1037 1.34884 20.6015 2.95839 18.6728 5.34108C17.3039 7.03199 16.1494 8.53843 15.1814 9.85788C14.0102 9.3353 12.7198 9.60168 11.7156 10.6059C11.0835 11.2381 9.7561 12.9917 8.71376 14.7221C6.78727 17.9206 7.12427 18.8502 7.54516 19.2711C7.71662 19.4426 7.97226 19.5991 8.4279 19.5966L5.02575 22.9987C3.98426 24.0402 3.98426 25.7348 5.02575 26.7763C6.06724 27.8178 7.76182 27.8178 8.80331 26.7763L9.466 26.1136C9.88435 25.6952 10.5654 25.6952 10.9837 26.1136C11.4021 26.5319 11.4021 27.2127 10.9837 27.631L8.24259 30.3722C7.2011 31.4137 7.2011 33.1083 8.24259 34.1498C9.28408 35.1912 10.9787 35.1912 12.0202 34.1498L13.7404 32.4292C13.9523 32.2173 13.9523 31.8741 13.7404 31.6623C13.5286 31.4504 13.1854 31.4504 12.9735 31.6623L11.2529 33.3825C10.6346 34.0012 9.62814 34.0012 9.00952 33.3825C8.39118 32.7639 8.39118 31.7577 9.00952 31.1391L11.7507 28.398C12.5922 27.5567 12.5922 26.1879 11.7507 25.3464C10.9092 24.5049 9.54029 24.5049 8.69908 25.3464L8.0361 26.0091C7.41748 26.6277 6.4113 26.6277 5.79267 26.0093C5.17405 25.3907 5.17405 24.3843 5.79267 23.7659L10.6668 18.8918C10.9722 18.7409 11.3072 18.5616 11.6753 18.3494C11.869 18.7799 12.1419 19.1819 12.493 19.533L13.4749 20.5149C11.9769 23.1914 12.2947 24.0207 12.6857 24.4117C13.0763 24.8023 13.906 25.1204 16.5824 23.6221L17.564 24.604C17.9152 24.9551 18.3171 25.228 18.7476 25.4221C18.5352 25.7904 18.3558 26.1254 18.205 26.4311C18.2039 26.4322 18.2024 26.4331 18.2013 26.4342L14.6616 29.9742C14.4497 30.1858 14.4497 30.5293 14.6616 30.7411C14.8735 30.953 15.2169 30.953 15.4288 30.7411L17.5005 28.6691C17.4979 29.1251 17.6547 29.3804 17.8262 29.5522C18.2471 29.9731 19.1767 30.3098 22.3749 28.3836C24.1056 27.3412 25.8593 26.0136 26.4914 25.3814C27.4883 24.3843 27.7527 23.0795 27.2386 21.9163ZM8.31519 18.5011C8.24231 18.3037 8.36462 17.3678 9.74367 15.1159C10.7242 13.5154 11.9289 11.9267 12.4829 11.3728C13.0922 10.7635 13.8238 10.5559 14.5206 10.7692C13.3614 12.3892 12.5148 13.6829 11.923 14.6399C11.4199 15.4532 11.2405 16.3839 11.3648 17.274C9.35499 18.463 8.50219 18.57 8.31519 18.5011ZM14.8842 20.2564C13.5051 22.5083 13.3828 23.4442 13.4557 23.6416C13.6529 23.7142 14.5887 23.5922 16.8406 22.2129C18.4411 21.2327 20.0298 20.0279 20.5837 19.4737C21.691 18.3666 21.2865 17.1763 20.6035 16.4935C19.9207 15.8105 18.7304 15.406 17.6234 16.5133C17.0694 17.0673 15.8647 18.6559 14.8842 20.2564ZM17.5465 23.0521C19.1716 22.0436 20.7566 20.8352 21.3509 20.2409C22.6856 18.9062 22.6938 17.0497 21.3707 15.7263C20.0476 14.4032 18.1911 14.4114 16.8562 15.7464C16.2621 16.3404 15.0537 17.9254 14.0449 19.5508L13.2602 18.7661C12.3094 17.8153 12.1391 16.3532 12.8456 15.2108C13.9774 13.3804 16.0536 10.3008 19.516 6.02383C21.2967 3.82418 23.6079 2.33779 26.3858 1.60617C28.8736 0.951109 31.2842 1.03161 32.8686 1.21466C34.4595 1.39827 35.6988 2.63749 35.8827 4.2284C35.9889 5.14984 36.0595 6.35122 35.9722 7.68394L30.428 2.13977C30.2162 1.92791 29.8727 1.92791 29.6608 2.13977C29.449 2.35135 29.449 2.69484 29.6608 2.9067L35.8245 9.07034C35.7445 9.60817 35.6369 10.1576 35.4909 10.7112C34.7593 13.4894 33.2729 15.8006 31.0735 17.5811C26.7962 21.0437 23.7167 23.1199 21.8865 24.2515C20.7439 24.9582 19.2821 24.7876 18.3313 23.8368L17.5465 23.0521ZM18.5962 28.7821C18.7934 28.8547 19.7292 28.7327 21.9811 27.3534C23.5816 26.3732 25.1703 25.1684 25.7242 24.6142C26.3383 24.0001 26.5443 23.2716 26.329 22.5756C24.7084 23.7357 23.4144 24.5823 22.4571 25.1743C21.6439 25.6771 20.7134 25.8565 19.823 25.7322C18.6341 27.7423 18.5273 28.5951 18.5962 28.7821Z" fill="black"/>
<path id="Shape_18" fill-rule="evenodd" clip-rule="evenodd" d="M0.854232 27.1701C1.89714 26.1275 3.59369 26.1275 4.6366 27.1701C5.67922 28.2131 5.67922 29.9096 4.63631 30.9525C3.59369 31.9951 1.89714 31.9951 0.854232 30.9522C-0.18839 29.9096 -0.18839 28.2131 0.854232 27.1701ZM1.62144 27.9374C1.00168 28.5571 1.00168 29.5656 1.62144 30.1853C2.24119 30.8051 3.24963 30.8051 3.86939 30.1853C4.48914 29.5656 4.48914 28.5571 3.86939 27.9374C3.24963 27.3176 2.24119 27.3176 1.62144 27.9374Z" fill="black"/>
</g>
</svg>
