<svg width="32" height="30" viewBox="0 0 32 30" fill="none" xmlns="http://www.w3.org/2000/svg">
<g id="Icon">
<path id="Shape" d="M19.5047 25.3559C19.5047 27.6452 17.6489 29.501 15.3598 29.501C13.0706 29.501 11.2148 27.6452 11.2148 25.3559C11.2148 23.0667 13.0706 21.2109 15.3598 21.2109C17.6489 21.2109 19.5047 23.0667 19.5047 25.3559Z" fill="#FFDE55"/>
<path id="Shape_2" d="M15.3598 21.2109C13.0706 21.2109 11.2148 23.0667 11.2148 25.3559C11.2148 26.9393 12.1041 28.3137 13.4093 29.0116C15.0164 27.2116 17.7241 26.9794 19.1674 26.9965C19.3845 26.4933 19.5049 25.9387 19.5049 25.3559C19.5047 23.0667 17.6489 21.2109 15.3598 21.2109V21.2109Z" fill="#FFCD00"/>
<path id="Shape_3" d="M24.5218 12.0494C24.5218 12.0494 24.6146 0.47998 15.3601 0.47998C6.10557 0.47998 6.19838 12.0494 6.19838 12.0494C6.19838 12.0494 6.26963 19.1196 2.62744 23.4762H28.0928C24.4506 19.1196 24.5218 12.0494 24.5218 12.0494Z" fill="#FFDE55"/>
<path id="Shape_4" d="M10.9733 23.4761C12.4663 19.3474 12.9231 15.1427 13.048 12.4982C13.119 10.9992 13.5498 9.54207 14.2848 8.23355C15.8528 5.44191 14.735 2.14707 14.015 0.567383C6.11494 1.63098 6.19838 12.0494 6.19838 12.0494C6.19838 12.0494 6.26963 19.1196 2.62744 23.4761H10.9733Z" fill="#FFCD00"/>
<path id="Shape_5" d="M27.825 26.1014H2.89543C1.55059 26.1014 0.450195 25.001 0.450195 23.6562C0.450195 22.3113 1.55059 21.2109 2.89543 21.2109H27.825C29.1698 21.2109 30.2702 22.3113 30.2702 23.6562C30.2702 25.001 29.1698 26.1014 27.825 26.1014Z" fill="#FFEB99"/>
<path id="Shape_6" d="M7.55316 23.6562C7.55316 22.3113 8.65355 21.2109 9.9984 21.2109H2.89543C1.55059 21.2109 0.450195 22.3113 0.450195 23.6562C0.450195 25.001 1.55059 26.1014 2.89543 26.1014H9.9984C8.65355 26.1014 7.55316 25.001 7.55316 23.6562Z" fill="#FFDE55"/>
<path id="Shape_7" d="M11.0954 5.05113C11.0954 7.00746 9.50941 8.59348 7.55309 8.59348C5.59676 8.59348 4.01074 7.00746 4.01074 5.05113C4.01074 3.0948 5.59676 1.50879 7.55309 1.50879C9.50941 1.50879 11.0954 3.0948 11.0954 5.05113Z" fill="#FF929F"/>
<path id="Shape_8" d="M8.24875 6.51306V3.58853C8.24875 3.41627 8.15031 3.25924 7.99563 3.184C7.8407 3.10877 7.65649 3.12822 7.52078 3.23463L6.06953 4.37416C5.87406 4.52767 5.84008 4.81033 5.99359 5.0058C6.14711 5.20127 6.43 5.23549 6.62547 5.08197L7.34875 4.51408V6.51306C7.34875 6.7615 7.55008 6.96306 7.79875 6.96306C8.04719 6.96306 8.24875 6.7615 8.24875 6.51306Z" fill="black"/>
<path id="Shape_9" d="M20.6495 15.8307V15.0838C20.6495 14.8351 20.4482 14.6338 20.1995 14.6338C19.9511 14.6338 19.7495 14.8351 19.7495 15.0838V15.8307C19.7495 16.0792 19.9511 16.2807 20.1995 16.2807C20.4482 16.2807 20.6495 16.0792 20.6495 15.8307Z" fill="black"/>
<path id="Shape_10" d="M10.0708 15.0838V15.8307C10.0708 16.0792 10.2721 16.2807 10.5208 16.2807C10.7692 16.2807 10.9708 16.0792 10.9708 15.8307V15.0838C10.9708 14.8351 10.7692 14.6338 10.5208 14.6338C10.2721 14.6338 10.0708 14.8351 10.0708 15.0838Z" fill="black"/>
<path id="Shape_11" d="M15.3602 16.7518C15.9426 16.7518 16.525 16.5633 17.0111 16.1864C17.2073 16.0341 17.2432 15.7514 17.0908 15.555C16.9385 15.3586 16.6558 15.323 16.4594 15.4754C15.8123 15.9772 14.9083 15.9772 14.261 15.4754C14.0646 15.323 13.7819 15.3586 13.6296 15.555C13.4772 15.7514 13.5131 16.0341 13.7095 16.1864C14.1953 16.5633 14.7778 16.7518 15.3602 16.7518Z" fill="black"/>
<path id="Shape_12" fill-rule="evenodd" clip-rule="evenodd" d="M27.8248 20.761H26.8896C24.9511 16.7855 24.9712 12.1015 24.9717 12.053C24.9722 11.9906 24.9792 10.5054 24.5672 8.58166C23.8725 5.33861 22.5389 3.46057 21.5426 2.45604C19.9455 0.846113 17.8652 0.0297852 15.36 0.0297852C13.8982 0.0297852 12.5677 0.31127 11.4054 0.86627C11.1811 0.973379 11.0862 1.24197 11.1933 1.46627C11.3004 1.69057 11.569 1.78549 11.7933 1.67838C12.8334 1.18174 14.0334 0.929785 15.36 0.929785C17.6152 0.929785 19.4791 1.65564 20.9009 3.08697C24.075 6.28338 24.0722 11.9885 24.0717 12.0446C24.0698 12.2421 24.048 16.6948 25.8949 20.761H23.847C23.5983 20.761 23.397 20.9625 23.397 21.211C23.397 21.4594 23.5983 21.661 23.847 21.661H27.8248C28.9249 21.661 29.82 22.556 29.82 23.6562C29.82 24.7563 28.9249 25.6514 27.8248 25.6514H2.89523C1.79508 25.6514 0.9 24.7563 0.9 23.6562C0.9 22.556 1.79508 21.661 2.89523 21.661H21.8536C22.102 21.661 22.3036 21.4594 22.3036 21.211C22.3036 20.9625 22.102 20.761 21.8536 20.761H4.82508C6.67195 16.695 6.65016 12.2421 6.64828 12.0457C6.64805 12.0314 6.64219 10.7175 6.98484 9.00213C9.61922 9.27494 11.5453 7.25229 11.5453 5.0508C11.5453 2.84955 9.75422 1.05846 7.55297 1.05846C5.35148 1.05846 3.56063 2.84932 3.56063 5.0508C3.56063 6.74463 4.62117 8.19424 6.11297 8.77338C5.74172 10.6006 5.74758 11.9899 5.74828 12.0539C5.74875 12.1015 5.77219 16.7794 3.83016 20.761H2.89523C1.29867 20.761 0 22.0596 0 23.6562C0 25.2528 1.29867 26.5514 2.89523 26.5514H10.923C11.4572 28.5354 13.2841 29.951 15.36 29.951C17.4574 29.951 19.2649 28.5429 19.7977 26.5514H27.8248C29.4211 26.5514 30.72 25.2528 30.72 23.6562C30.72 22.0596 29.4211 20.761 27.8248 20.761ZM4.46063 5.0508C4.46063 3.34572 5.84789 1.95846 7.55297 1.95846C9.25805 1.95846 10.6453 3.34572 10.6453 5.0508C10.6453 6.75588 9.25805 8.14314 7.55297 8.14314C5.84789 8.14314 4.46063 6.75588 4.46063 5.0508ZM11.8634 26.5514C12.3675 28.0228 13.7733 29.051 15.36 29.051C16.9634 29.051 18.3555 28.0278 18.8571 26.5514H11.8634Z" fill="black"/>
</g>
</svg>
