<svg width="34" height="236" viewBox="0 0 34 236" fill="none" xmlns="http://www.w3.org/2000/svg">
<g id="Social Media">
<g id="Facebook">
<circle id="Oval" cx="16.879" cy="16.879" r="16.879" fill="#9B9B9B"/>
<path id="Shape" d="M21.1223 17.5398H18.1105V28.5738H13.5472V17.5398H11.377V13.662H13.5472V11.1526C13.5472 9.35812 14.3996 6.54816 18.1511 6.54816L21.5312 6.5623V10.3264H19.0787C18.6764 10.3264 18.1108 10.5274 18.1108 11.3834V13.6656H21.521L21.1223 17.5398Z" fill="white"/>
</g>
<g id="Twitter">
<circle id="Oval_2" cx="16.879" cy="83.879" r="16.879" fill="#9B9B9B"/>
<path id="Shape_2" d="M28.1652 79.092C27.4419 79.4127 26.6638 79.6297 25.8478 79.7265C26.681 79.2274 27.3204 78.4376 27.6221 77.4949C26.8425 77.9573 25.9787 78.2928 25.0601 78.4737C24.3241 77.6899 23.2756 77.2 22.1144 77.2C19.8867 77.2 18.0799 79.0068 18.0799 81.2346C18.0799 81.5508 18.1157 81.8586 18.1849 82.1541C14.8318 81.9859 11.8588 80.3798 9.86873 77.9381C9.5215 78.5338 9.32232 79.2274 9.32232 79.9666C9.32232 81.3661 10.0351 82.6015 11.1171 83.3248C10.4561 83.3041 9.83352 83.1226 9.28982 82.8196C9.28952 82.8368 9.28952 82.8539 9.28952 82.8708C9.28952 84.8256 10.6808 86.4561 12.5261 86.8265C12.1879 86.9192 11.8308 86.9682 11.4634 86.9682C11.2028 86.9682 10.9504 86.9433 10.7043 86.8963C11.2176 88.4988 12.7073 89.6654 14.4732 89.6982C13.0921 90.7805 11.3527 91.4253 9.46193 91.4253C9.13697 91.4253 8.81503 91.4063 8.5 91.3687C10.2845 92.5139 12.4058 93.1815 14.6841 93.1815C22.1051 93.1815 26.1635 87.0338 26.1635 81.7019C26.1635 81.527 26.1595 81.3528 26.1517 81.1801C26.9406 80.6114 27.6245 79.9011 28.1652 79.092Z" fill="white"/>
</g>
<g id="Instagram">
<path id="Shape_3" fill-rule="evenodd" clip-rule="evenodd" d="M22.0074 144.021H11.9011C10.288 144.021 8.97559 145.334 8.97559 146.947V157.053C8.97559 158.666 10.288 159.979 11.9011 159.979H22.0074C23.6205 159.979 24.9333 158.667 24.9333 157.053V146.947C24.9333 145.334 23.6209 144.021 22.0074 144.021ZM16.9543 157.253C14.0578 157.253 11.7013 154.897 11.7013 152C11.7013 149.104 14.0578 146.747 16.9543 146.747C19.8511 146.747 22.2076 149.104 22.2076 152C22.2076 154.896 19.8507 157.253 16.9543 157.253ZM21.1332 146.59C21.1332 147.276 21.6908 147.833 22.3765 147.833C23.0618 147.833 23.6194 147.276 23.6194 146.59C23.6194 145.905 23.0618 145.347 22.3765 145.347C21.6908 145.347 21.1332 145.905 21.1332 146.59Z" fill="#9B9B9B"/>
<path id="Shape_4" d="M16.9545 148.967C15.2824 148.967 13.9209 150.328 13.9209 152C13.9209 153.672 15.2824 155.034 16.9545 155.034C18.6273 155.034 19.9876 153.672 19.9876 152C19.9876 150.328 18.6269 148.967 16.9545 148.967Z" fill="#9B9B9B"/>
<path id="Shape_5" fill-rule="evenodd" clip-rule="evenodd" d="M0 151.954C0 142.591 7.59107 135 16.9543 135C26.3175 135 33.9086 142.591 33.9086 151.954C33.9086 161.318 26.3175 168.909 16.9543 168.909C7.59107 168.909 0 161.318 0 151.954ZM22.0074 162.198C24.8449 162.198 27.1528 159.891 27.1528 157.053V146.947C27.1528 144.11 24.8449 141.802 22.0074 141.802H11.9011C9.06402 141.802 6.7558 144.11 6.7558 146.947V157.053C6.7558 159.891 9.06402 162.198 11.9011 162.198H22.0074Z" fill="#9B9B9B"/>
</g>
<g id="Pinterest">
<circle id="Oval_3" cx="16.879" cy="218.88" r="16.879" fill="#9B9B9B"/>
<path id="Shape_6" d="M18.2417 224.603C16.9656 224.504 16.4294 223.872 15.4287 223.264C14.8787 226.15 14.2065 228.916 12.2155 230.361C11.6002 226 13.1176 222.724 13.8223 219.246C12.6211 217.224 13.9667 213.155 16.5001 214.158C19.6182 215.391 13.8006 221.676 17.7061 222.461C21.7834 223.28 23.4479 215.386 20.9192 212.818C17.2659 209.111 10.2851 212.734 11.1435 218.041C11.3526 219.339 12.6933 219.732 11.6791 221.523C9.34088 221.005 8.64343 219.161 8.7331 216.702C8.87782 212.678 12.3491 209.86 15.831 209.47C20.2344 208.977 24.3674 211.087 24.9379 215.229C25.5796 219.904 22.9499 224.967 18.2417 224.603Z" fill="white"/>
</g>
</g>
</svg>
