<svg width="32" height="35" viewBox="0 0 32 35" fill="none" xmlns="http://www.w3.org/2000/svg">
<g id="Icon">
<path id="Shape" d="M27.496 6.33286C22.6855 5.7243 19.4915 3.31783 17.6413 1.37386C16.5486 0.225639 14.7115 0.225639 13.6188 1.37386C11.7685 3.31783 8.5746 5.7243 3.76434 6.33286C1.75067 6.5876 0.329013 8.43891 0.574413 10.4536C1.19098 15.5096 2.68688 23.9106 5.5529 27.042C8.10623 29.8322 11.318 32.2966 13.4201 33.7853C14.7443 34.7228 16.516 34.7228 17.8402 33.7853C19.9423 32.2966 23.1541 29.8322 25.7074 27.042C28.5735 23.9103 30.0693 15.5096 30.6859 10.4536C30.9313 8.43891 29.5094 6.5876 27.496 6.33286Z" fill="#CCF8FF"/>
<path id="Shape_2" d="M19.3704 2.95094C18.6993 2.42062 18.1244 1.88122 17.6413 1.37386C16.5487 0.225639 14.7115 0.225639 13.6188 1.37386C11.7686 3.31783 8.57465 5.72456 3.76439 6.33286C1.75073 6.5876 0.328798 8.43891 0.574464 10.4536C1.19077 15.5096 2.68693 23.9106 5.55295 27.042C7.17408 28.8135 9.06037 30.4536 10.7597 31.7959C9.14021 26.764 8.81551 21.6795 8.88413 17.9299C8.93994 14.8842 10.5485 12.0833 13.1334 10.4715C16.6766 8.26187 18.5914 4.71519 19.3704 2.95094Z" fill="#ABEBF4"/>
<path id="Shape_3" d="M16.4933 30.2437C15.983 30.6317 15.2775 30.6317 14.7672 30.2437C13.208 29.0587 9.92436 26.4904 8.20657 24.6134C7.8135 24.1835 6.78197 22.7341 5.70237 18.5671C5.12879 16.3524 4.64947 13.156 4.40034 11.328C4.29539 10.5568 4.80756 9.83286 5.57153 9.6852C9.66561 8.89426 12.7031 7.02586 14.8089 5.20365C15.2794 4.7967 15.9814 4.7967 16.4516 5.20365C18.5577 7.02586 21.5951 8.89426 25.6889 9.6852C26.4532 9.83286 26.9653 10.5568 26.8601 11.328C26.6113 13.156 26.1319 16.3526 25.5581 18.5671C24.4785 22.7341 23.4472 24.1835 23.0539 24.6134C21.3361 26.4904 18.0525 29.0587 16.4933 30.2437Z" fill="#B2E59C"/>
<path id="Shape_4" d="M15.6297 22.0635C15.3291 22.0635 15.0276 21.9633 14.7787 21.7609L10.7602 18.4911C10.1823 18.0209 10.0953 17.1712 10.5653 16.5934C11.0358 16.0155 11.8852 15.9282 12.463 16.3984L15.5413 18.9034L20.0464 14.4403C20.5756 13.9161 21.4299 13.9201 21.954 14.4494C22.4785 14.9786 22.4745 15.8326 21.9452 16.357L16.5793 21.6728C16.3179 21.9318 15.9745 22.0635 15.6297 22.0635Z" fill="#FFEB99"/>
<path id="Shape_5" d="M17.5916 6.12009C17.1851 5.81702 16.8049 5.5094 16.4516 5.20365C15.9814 4.7967 15.2794 4.7967 14.8089 5.20365C12.7031 7.02586 9.66561 8.89426 5.57153 9.6852C4.80756 9.83286 4.29539 10.5568 4.40034 11.328C4.64947 13.156 5.12852 16.3526 5.70237 18.5671C6.78197 22.7341 7.81323 24.1835 8.20657 24.6134C8.54356 24.9817 8.94196 25.3774 9.37482 25.7833C8.94303 22.8866 8.84343 20.1695 8.88428 17.9297C8.94009 14.884 10.5487 12.0828 13.1335 10.4713C15.0871 9.25314 16.5453 7.62881 17.5916 6.12009Z" fill="#9AD880"/>
<path id="Shape_6" d="M27.5601 5.82417C26.4768 5.68718 25.418 5.44685 24.4137 5.11013C24.1451 5.02014 23.8546 5.16487 23.7646 5.43324C23.6746 5.70187 23.8193 5.99239 24.0877 6.08238C25.1561 6.44073 26.281 6.69601 27.4317 6.84155C29.1572 7.05997 30.3888 8.65253 30.1767 10.3914C29.8988 12.6719 29.3898 16.0757 28.5438 19.3409C27.6223 22.8975 26.5409 25.372 25.3294 26.6959C22.8414 29.4146 19.7223 31.8242 17.5439 33.3669C16.3991 34.1776 14.861 34.1776 13.7165 33.3669C11.5381 31.8242 8.41896 29.4146 5.93105 26.6959C4.71954 25.372 3.63781 22.8975 2.71656 19.3409C1.87061 16.0757 1.36165 12.6719 1.08341 10.3914C0.871654 8.65253 2.10292 7.05997 3.82873 6.84155C8.80321 6.21243 12.1002 3.71304 13.9902 1.72714C14.421 1.2748 15.0034 1.02539 15.6301 1.02539C16.2568 1.02539 16.8392 1.2748 17.2702 1.72714C18.6317 3.15788 20.2056 4.32453 21.948 5.19478C22.2011 5.32135 22.5093 5.21854 22.6358 4.96513C22.7621 4.71172 22.6593 4.40384 22.4062 4.27753C20.7704 3.46043 19.2924 2.36454 18.0128 1.02032C17.3866 0.362358 16.5404 0 15.6301 0C14.7198 0 13.8736 0.362358 13.2474 1.02032C11.4722 2.88551 8.3749 5.23296 3.70002 5.82417C1.41586 6.11309 -0.214619 8.21781 0.0654943 10.5156C0.542942 14.4318 1.99665 23.9156 5.17456 27.3883C7.72361 30.1737 10.9045 32.632 13.1237 34.2037C13.8733 34.7346 14.7515 35 15.6301 35C16.5083 34.9997 17.3869 34.7346 18.1364 34.2037C20.3557 32.632 23.5365 30.1737 26.0856 27.3883C29.2638 23.9156 30.7172 14.4318 31.1946 10.5156C31.4748 8.21781 29.8443 6.11309 27.5601 5.82417Z" fill="black"/>
<path id="Shape_7" fill-rule="evenodd" clip-rule="evenodd" d="M5.47431 9.18209C8.85195 8.52947 11.8798 7.06054 14.4734 4.81616C15.133 4.24552 16.1274 4.24552 16.787 4.81616C19.3806 7.06054 22.4085 8.52947 25.7861 9.18209C26.8153 9.38102 27.5103 10.3541 27.3683 11.3976C27.129 13.152 26.6406 16.4333 26.0542 18.6961C24.9858 22.8206 23.9527 24.391 23.432 24.9597C21.7203 26.83 18.5443 29.3291 16.8035 30.6523C16.458 30.9148 16.0441 31.0459 15.6302 31.0459C15.2163 31.0459 14.8024 30.9148 14.4569 30.6523C12.7161 29.3291 9.54009 26.83 7.82843 24.9597C7.30773 24.391 6.27459 22.8206 5.20621 18.6961C4.62008 16.4338 4.13142 13.1523 3.89243 11.3976C3.75037 10.3541 4.44518 9.38102 5.47431 9.18209ZM25.0617 18.4389C25.6347 16.2271 26.1162 12.9913 26.3522 11.259C26.4208 10.7546 26.0868 10.2846 25.5917 10.1888C22.0352 9.50172 18.8471 7.95509 16.1159 5.59162C15.9776 5.47172 15.8038 5.41164 15.6302 5.41164C15.4566 5.41164 15.2828 5.47172 15.1445 5.59162C12.4133 7.95509 9.22526 9.50172 5.6687 10.1888C5.17363 10.2846 4.83958 10.7546 4.90847 11.259C5.14453 12.9915 5.62598 16.2276 6.19876 18.4389C7.27889 22.6083 8.29814 23.9541 8.58493 24.2676C10.3041 26.1459 13.698 28.7873 15.0775 29.8357C15.403 30.0832 15.8575 30.0832 16.183 29.8357C17.5624 28.7873 20.9564 26.1462 22.6758 24.2676C22.9623 23.9541 23.9815 22.6083 25.0617 18.4389Z" fill="black"/>
<path id="Shape_8" d="M12.7869 16.0005C12.4013 15.6864 11.0998 15.0381 10.1679 16.2694C9.23623 17.5004 10.0512 18.5743 10.4368 18.8884L11.9236 20.098C12.1431 20.2767 12.4662 20.2438 12.6449 20.024C12.8235 19.8043 12.7904 19.4814 12.5709 19.3025L11.0841 18.0929C10.911 17.9519 10.5329 17.4929 10.9634 16.9164C11.3938 16.3401 11.9666 16.6547 12.1396 16.7957L15.2182 19.3007C15.4214 19.466 15.7165 19.4515 15.9026 19.267L20.4077 14.8042C20.7353 14.4795 21.2656 14.4821 21.5903 14.8098C21.9148 15.1372 21.9121 15.6677 21.5847 15.9922L16.2188 21.3082C15.7939 21.7178 15.3261 21.5472 15.1026 21.3627L14.2508 20.6697C14.031 20.4911 13.7082 20.5242 13.5293 20.7437C13.3506 20.9632 13.3837 21.2863 13.6035 21.4649L14.4553 22.1581C14.7862 22.4273 15.2033 22.5758 15.63 22.5758C16.1242 22.5758 16.5897 22.3843 16.9405 22.0366L22.3062 16.7209C23.0355 15.9983 23.0411 14.8173 22.3185 14.088C21.5962 13.359 20.4151 13.3534 19.6859 14.0757L15.5079 18.2147L12.7869 16.0005Z" fill="black"/>
</g>
</svg>
