<svg width="40" height="25" viewBox="0 0 40 25" fill="none" xmlns="http://www.w3.org/2000/svg">
<g id="Icon">
<path id="Shape" d="M26.674 15.9255H3.90876C2.0658 15.9255 0.571777 14.4315 0.571777 12.5886V3.90876C0.571777 2.0658 2.0658 0.571777 3.90876 0.571777H26.674C28.5169 0.571777 30.011 2.0658 30.011 3.90876V12.5886C30.011 14.4315 28.5169 15.9255 26.674 15.9255Z" fill="#86D7EA"/>
<path id="Shape_2" d="M25.3788 8.24854H0.571777V12.5984C0.571777 14.4357 2.06133 15.9253 3.89864 15.9253H26.6841C27.4448 15.9253 28.1454 15.6695 28.7057 15.2399V11.5754C28.7057 9.73809 27.2162 8.24854 25.3788 8.24854Z" fill="#71C5E2"/>
<path id="Shape_3" d="M30.9048 20.1462H8.11934C6.28204 20.1462 4.79248 18.6567 4.79248 16.8194V8.11934C4.79248 6.28204 6.28204 4.79248 8.11934 4.79248H30.9048C32.7421 4.79248 34.2317 6.28204 34.2317 8.11934V16.8194C34.2317 18.6567 32.7421 20.1462 30.9048 20.1462Z" fill="#A2E5F4"/>
<path id="Shape_4" d="M29.5996 12.4697H4.79248V16.8196C4.79248 18.6569 6.28204 20.1465 8.11934 20.1465H30.9048C31.6652 20.1465 32.3661 19.8907 32.9264 19.4611V15.7966C32.9264 13.9593 31.4369 12.4697 29.5996 12.4697Z" fill="#86D7EA"/>
<path id="Shape_5" d="M35.126 24.3674H12.3405C10.5032 24.3674 9.01367 22.8779 9.01367 21.0406V12.3405C9.01367 10.5032 10.5032 9.01367 12.3405 9.01367H35.126C36.9633 9.01367 38.4529 10.5032 38.4529 12.3405V21.0406C38.4529 22.8779 36.9633 24.3674 35.126 24.3674Z" fill="#CCF8FF"/>
<path id="Shape_6" d="M14.6387 21.0406V12.3405C14.6387 10.5032 16.1283 9.01367 17.9659 9.01367H12.3405C10.5032 9.01367 9.01367 10.5032 9.01367 12.3405V21.0406C9.01367 22.8779 10.5032 24.3674 12.3405 24.3674H17.9659C16.1283 24.3674 14.6387 22.8779 14.6387 21.0406Z" fill="#B7F3F9"/>
<path id="Shape_7" d="M16.561 13.6272C16.561 14.9637 15.4779 16.0469 14.1414 16.0469C12.8051 16.0469 11.7217 14.9637 11.7217 13.6272C11.7217 12.291 12.8051 11.2075 14.1414 11.2075C15.4779 11.2075 16.561 12.291 16.561 13.6272Z" fill="#B2E59C"/>
<path id="Shape_8" d="M25.8419 14.9529H20.4059C19.6767 14.9529 19.0801 14.3562 19.0801 13.6271C19.0801 12.8979 19.6767 12.3013 20.4059 12.3013H25.8419C26.571 12.3013 27.1677 12.8979 27.1677 13.6271C27.1677 14.3562 26.571 14.9529 25.8419 14.9529Z" fill="#D8D7DA"/>
<g id="Group">
<path id="Shape_9" d="M34.9967 20.2997C34.9967 21.0488 34.3896 21.6559 33.6408 21.6559C32.892 21.6559 32.2847 21.0488 32.2847 20.2997C32.2847 19.5509 32.892 18.9438 33.6408 18.9438C34.3896 18.9438 34.9967 19.5509 34.9967 20.2997Z" fill="#FFDE55"/>
<path id="Shape_10" d="M29.8795 20.2997C29.8795 21.0488 29.2724 21.6559 28.5234 21.6559C27.7746 21.6559 27.1675 21.0488 27.1675 20.2997C27.1675 19.5509 27.7746 18.9438 28.5234 18.9438C29.2724 18.9438 29.8795 19.5509 29.8795 20.2997Z" fill="#FFDE55"/>
<path id="Shape_11" d="M24.7628 20.2997C24.7628 21.0488 24.1557 21.6559 23.407 21.6559C22.6579 21.6559 22.0508 21.0488 22.0508 20.2997C22.0508 19.5509 22.6579 18.9438 23.407 18.9438C24.1557 18.9438 24.7628 19.5509 24.7628 20.2997Z" fill="#FFDE55"/>
</g>
<path id="Shape_12" d="M32.0337 15.1584C32.1453 15.2701 32.538 15.4696 32.8423 15.1584L33.5649 14.4358L34.2875 15.1584C34.6293 15.4586 34.9845 15.2701 35.0962 15.1584C35.3192 14.9351 35.3192 14.5731 35.0962 14.3501L34.3733 13.6272L35.0962 12.9046C35.3192 12.6813 35.3192 12.3193 35.0962 12.096C34.8729 11.873 34.5108 11.873 34.2875 12.096L33.5649 12.8189L32.8423 12.096C32.619 11.873 32.257 11.873 32.0337 12.096C31.8104 12.3196 31.8104 12.6813 32.0337 12.9046L32.7566 13.6272L32.0337 14.3501C31.8104 14.5734 31.8104 14.9351 32.0337 15.1584Z" fill="black"/>
<path id="Shape_13" fill-rule="evenodd" clip-rule="evenodd" d="M30.5825 4.22095C34.9321 4.22095 34.8034 8.44191 34.8034 8.44191C39.0244 8.44191 39.0244 12.3404 39.0244 12.3404V21.0405C39.0244 23.1901 37.2755 24.939 35.1259 24.939H12.3404C10.1908 24.939 8.44191 23.1901 8.44191 21.0405V12.3404C8.44191 10.1908 10.1908 8.44191 12.3404 8.44191H33.6601C33.6601 8.44191 33.9629 5.44106 30.9049 5.36425H27.3071C26.9915 5.36425 26.7355 5.10849 26.7355 4.7926C26.7355 4.47671 26.9915 4.22095 27.3071 4.22095H29.4392C29.4392 4.22095 29.5714 1.14329 26.6739 1.14329H3.90863C2.38394 1.14329 1.14329 2.38394 1.14329 3.90863V12.5884C1.14329 15.3416 4.22095 15.3538 4.22095 15.3538V8.11946C4.22095 5.96983 5.96983 4.22095 8.11946 4.22095H24.6904C25.006 4.22095 25.262 4.47671 25.262 4.7926C25.262 5.10849 25.006 5.36425 24.6904 5.36425H8.11946C6.60013 5.36425 5.36425 6.60013 5.36425 8.11946V16.8195C5.36425 17.8342 5.91952 18.7643 6.81391 19.2466C7.09169 19.3964 7.1956 19.7429 7.04554 20.021C6.94253 20.2125 6.68439 20.4822 6.27114 20.253C4.15456 19.0787 4.22095 16.4971 4.22095 16.4971C4.22095 16.4971 0 16.6185 0 12.5884V3.90863C0 1.75335 1.75335 0 3.90863 0H26.6742C30.5649 0 30.5825 4.22095 30.5825 4.22095ZM35.1259 23.7957C36.6449 23.7957 37.8811 22.5598 37.8811 21.0405V12.3404C37.8811 10.8214 36.6449 9.5852 35.1259 9.5852H12.3404C10.8211 9.5852 9.5852 10.8211 9.5852 12.3404V21.0405C9.5852 22.5595 10.8211 23.7957 12.3404 23.7957H35.1259Z" fill="black"/>
<path id="Shape_14" fill-rule="evenodd" clip-rule="evenodd" d="M11.1499 13.6271C11.1499 11.9776 12.4918 10.6357 14.1412 10.6357C15.7907 10.6357 17.1325 11.9776 17.1325 13.6271C17.1325 15.2765 15.7907 16.6184 14.1412 16.6184C12.4918 16.6184 11.1499 15.2765 11.1499 13.6271ZM12.2932 13.6271C12.2932 14.6462 13.1224 15.4751 14.1412 15.4751C15.1604 15.4751 15.9892 14.6462 15.9892 13.6271C15.9892 12.6082 15.1604 11.7793 14.1412 11.7793C13.1224 11.7793 12.2932 12.6082 12.2932 13.6271Z" fill="black"/>
<path id="Shape_15" fill-rule="evenodd" clip-rule="evenodd" d="M25.8417 11.73C26.888 11.73 27.7392 12.5812 27.7392 13.6274C27.7392 14.6737 26.888 15.5249 25.8417 15.5249H20.4057C19.3592 15.5249 18.5083 14.6737 18.5083 13.6274C18.5083 12.5812 19.3595 11.73 20.4057 11.73H25.8417ZM20.4057 14.3816H25.8417C26.2577 14.3816 26.5959 14.0434 26.5959 13.6274C26.5959 13.2118 26.2577 12.8733 25.8417 12.8733H20.4057C19.9898 12.8733 19.6516 13.2118 19.6516 13.6274C19.6516 14.0434 19.9898 14.3816 20.4057 14.3816Z" fill="black"/>
<path id="Shape_16" fill-rule="evenodd" clip-rule="evenodd" d="M31.7129 20.3001C31.7129 19.2372 32.5778 18.3726 33.6407 18.3726C34.7036 18.3726 35.5682 19.2372 35.5682 20.3001C35.5682 21.363 34.7036 22.2279 33.6407 22.2279C32.5778 22.2279 31.7129 21.363 31.7129 20.3001ZM32.8562 20.3001C32.8562 20.7327 33.2081 21.0846 33.6407 21.0846C34.073 21.0846 34.4249 20.7327 34.4249 20.3001C34.4249 19.8675 34.0733 19.5159 33.6407 19.5159C33.2081 19.5159 32.8562 19.8675 32.8562 20.3001Z" fill="black"/>
<path id="Shape_17" fill-rule="evenodd" clip-rule="evenodd" d="M26.5962 20.3001C26.5962 19.2372 27.4608 18.3726 28.5237 18.3726C29.5869 18.3726 30.4515 19.2372 30.4515 20.3001C30.4515 21.363 29.5866 22.2279 28.5237 22.2279C27.4608 22.2279 26.5962 21.363 26.5962 20.3001ZM27.7395 20.3001C27.7395 20.7327 28.0914 21.0846 28.5237 21.0846C28.9563 21.0846 29.3082 20.7327 29.3082 20.3001C29.3082 19.8675 28.9563 19.5159 28.5237 19.5159C28.0914 19.5159 27.7395 19.8675 27.7395 20.3001Z" fill="black"/>
<path id="Shape_18" fill-rule="evenodd" clip-rule="evenodd" d="M21.479 20.3001C21.479 19.2372 22.3439 18.3726 23.4068 18.3726C24.4697 18.3726 25.3343 19.2372 25.3346 20.3001C25.3346 21.363 24.4697 22.2279 23.4068 22.2279C22.3439 22.2279 21.479 21.363 21.479 20.3001ZM22.6223 20.3001C22.6223 20.7327 22.9742 21.0846 23.4068 21.0846C23.8391 21.0846 24.1913 20.7327 24.1913 20.3001C24.1913 19.8675 23.8394 19.5159 23.4068 19.5159C22.9742 19.5159 22.6223 19.8675 22.6223 20.3001Z" fill="black"/>
</g>
</svg>
